<svg xmlns="http://www.w3.org/2000/svg" viewBox="0 0 100 100" width="100" height="100">
  <!-- Background -->
  <defs>
    <filter id="paper-texture" x="-50%" y="-50%" width="200%" height="200%">
      <feTurbulence type="fractalNoise" baseFrequency="0.04" numOctaves="5" seed="1" />
      <feDisplacementMap in="SourceGraphic" scale="5" />
    </filter>
    <filter id="sketchy" x="-20%" y="-20%" width="140%" height="140%">
      <feTurbulence type="turbulence" baseFrequency="0.05" numOctaves="2" result="turbulence" />
      <feDisplacementMap in2="turbulence" in="SourceGraphic" scale="5" xChannelSelector="R" yChannelSelector="G" />
    </filter>
  </defs>
  
  <!-- Background circle with sketchy border -->
  <circle cx="50" cy="50" r="45" fill="#f8f5e6" stroke="#2d2d2d" stroke-width="3" filter="url(#sketchy)" />
  
  <!-- Letter L with playful style -->
  <path d="M30,25 C28,25 27,26 27,28 L27,65 C27,67 28,68 30,68 L57,68 C59,68 60,67 60,65 L60,61 C60,59 59,58 57,58 L37,58 C36,58 35.5,57.5 35.5,56.5 L35.5,28 C35.5,26 34.5,25 32.5,25 Z" 
        fill="#ff6b6b" stroke="#2d2d2d" stroke-width="2.5" stroke-linecap="round" stroke-linejoin="round" filter="url(#sketchy)" />
  
  <!-- Game controller shape for the dot on "i" -->
  <rect x="57" y="25" width="15" height="10" rx="5" ry="5" fill="#ffd166" stroke="#2d2d2d" stroke-width="2" filter="url(#sketchy)" />
  
  <!-- Dice dot pattern -->
  <circle cx="41" cy="42" r="4" fill="none" stroke="#2d2d2d" stroke-width="1.5" />
  <circle cx="52" cy="42" r="4" fill="none" stroke="#2d2d2d" stroke-width="1.5" />
  <circle cx="63" cy="42" r="4" fill="none" stroke="#2d2d2d" stroke-width="1.5" />
  
  <!-- Playful elements -->
  <path d="M70,53 C72,56 72,59 70,62 C68,65 64,66 60,64" fill="none" stroke="#2d2d2d" stroke-width="2" stroke-linecap="round" />
  <path d="M22,40 C20,43 20,46 22,48" fill="none" stroke="#2d2d2d" stroke-width="2" stroke-linecap="round" />
  
  <!-- Stars for playful effect -->
  <path d="M76,34 L78,39 L83,39 L79,42 L81,47 L76,44 L71,47 L73,42 L69,39 L74,39 Z" fill="#4cc9f0" stroke="#2d2d2d" stroke-width="1" filter="url(#sketchy)" />
  <path d="M20,70 L22,75 L27,75 L23,78 L25,83 L20,80 L15,83 L17,78 L13,75 L18,75 Z" fill="#4cc9f0" stroke="#2d2d2d" stroke-width="1" filter="url(#sketchy)" />
</svg> 